:SAMPLES-PER-SECOND 30
:FULLY-SPECIFIED
:DEGREES
83
root  -29.0992 39.4109 -8.4171 1.69353 -57.5365 -6.64487
RightUpLeg  -15.9044 -12.2354 -5.47066
RightLeg  18.9956 6.0161 2.23275
RightFoot  2.16452 -0.705072 6.0909
RightToes  -5.8209e-011 0 -3.6325e-017
Spine  8.53011 -1.3114 10.0228
Spine1  6.41192 -0.311411 -1.21176
HEad  -5.8299 13.5313 -11.2837
LeftShoulder1  6.99899 -10.1482 -44.6433
LeftArm  -19.2989 20.754 -27.2671
LeftForeArm  29.1251 -35.3963 -6.24404
LeftHand  -0.244104 0.0205437 5.32207
RightShoulder  5.71007 8.783 40.3166
RightArm  -7.23807 -13.4365 27.3959
RightForeArm  12.0116 6.18094 6.31678
RightHand  -0.670951 0.278599 -13.794
LeftUpLeg  3.04163 -1.74409 3.57844
LeftLeg  37.1989 6.99359 6.04973
LeftFoot  -12.6365 -0.0392236 -7.81142
LeftToes  1.76439e-010 -1.07097e-011 2.32476e-011
84
root  -30.0381 39.5086 -8.37474 1.99442 -54.8797 -6.9774
RightUpLeg  -14.4517 -13.773 -5.04101
RightLeg  20.0458 5.03106 2.06538
RightFoot  0.305671 -0.621248 6.10457
RightToes  -5.8209e-011 0 -3.6325e-017
Spine  8.84102 -0.909415 11.3823
Spine1  6.04045 0.370621 -1.28632
HEad  -4.95633 15.0892 -10.8638
LeftShoulder1  7.05918 -10.294 -44.5488
LeftArm  -18.2593 20.4646 -28.1916
LeftForeArm  28.8382 -34.5082 -6.0296
LeftHand  -0.244104 0.0205437 5.32207
RightShoulder  5.72113 8.92043 39.9144
RightArm  -6.99101 -11.3442 27.7942
RightForeArm  10.821 8.01164 6.57113
RightHand  -0.669478 0.113476 -14.1633
LeftUpLeg  -2.37997 -1.29784 4.61584
LeftLeg  46.0789 7.74929 8.92433
LeftFoot  -5.28926 0.273159 -4.65254
LeftToes  1.76439e-010 -1.07097e-011 2.32476e-011
85
root  -30.9099 39.6645 -8.27325 1.87444 -52.53 -6.91635
RightUpLeg  -12.5783 -15.1479 -5.05343
RightLeg  20.1606 4.08382 2.03403
RightFoot  -1.11786 -0.532694 5.85787
RightToes  -5.8209e-011 0 -3.6325e-017
Spine  9.26153 -0.432882 12.8674
Spine1  5.66014 1.31245 -2.21649
HEad  -4.21849 16.0961 -9.86917
LeftShoulder1  7.0775 -10.3749 -44.3978
LeftArm  -17.015 20.6445 -28.9575
LeftForeArm  28.8392 -34.4311 -6.01034
LeftHand  -0.244104 0.0205437 5.32207
RightShoulder  5.68458 9.00682 39.3345
RightArm  -5.61774 -9.30105 28.499
RightForeArm  8.31309 10.7088 6.74685
RightHand  -0.703747 0.0418998 -15.0588
LeftUpLeg  -7.18521 0.677469 5.10049
LeftLeg  52.1512 7.4433 10.5758
LeftFoot  -1.67922 0.147841 -1.49496
LeftToes  1.76439e-010 -1.07097e-011 2.32476e-011
86
root  -31.7658 39.9036 -8.11328 1.34315 -50.2881 -6.14766
RightUpLeg  -10.3006 -16.0861 -5.71326
RightLeg  19.305 2.81254 2.16328
RightFoot  -2.63973 -0.441347 5.56574
RightToes  -5.8209e-011 0 -3.6325e-017
Spine  9.44278 0.0377318 13.6403
Spine1  5.29446 2.13951 -3.38618
HEad  -3.78715 17.035 -9.28925
LeftShoulder1  7.07683 -10.3767 -44.3878
LeftArm  -15.7942 21.3966 -29.3818
LeftForeArm  29.0728 -34.7133 -6.06892
LeftHand  -0.244104 0.0205437 5.32207
RightShoulder  5.60759 9.00929 38.7384
RightArm  -2.76319 -7.27683 29.3999
RightForeArm  4.34291 14.3486 6.39402
RightHand  -0.791363 0.278169 -16.2326
LeftUpLeg  -11.1281 3.63856 4.68246
LeftLeg  54.4307 6.38681 9.98588
LeftFoot  -2.06105 0.0971746 -1.06487
LeftToes  1.76439e-010 -1.07097e-011 2.32476e-011
87
root  -32.6126 40.1587 -7.91426 0.69278 -47.7086 -4.9735
RightUpLeg  -7.69189 -16.0643 -6.82628
RightLeg  17.6935 0.424307 2.37746
RightFoot  -3.71251 -0.407347 5.72562
RightToes  -5.8209e-011 0 -3.6325e-017
Spine  9.38313 0.413847 13.611
Spine1  4.87306 2.64221 -4.22111
HEad  -3.73916 17.9745 -9.5175
LeftShoulder1  7.10097 -10.3913 -44.4973
LeftArm  -14.6596 22.3911 -29.6046
LeftForeArm  29.1179 -34.3363 -5.97001
LeftHand  -0.244104 0.0205437 5.32207
RightShoulder  5.50229 8.93234 38.1924
RightArm  0.487713 -5.67347 30.3301
RightForeArm  -0.0188106 19.0677 5.48205
RightHand  -0.857416 0.434249 -17.1213
LeftUpLeg  -14.4116 6.99615 3.4306
LeftLeg  53.0999 5.29292 8.00902
LeftFoot  -3.5417 0.178454 -2.30589
LeftToes  1.76439e-010 -1.07097e-011 2.32476e-011
88
root  -33.4284 40.3859 -7.67888 0.267563 -44.7086 -4.0096
RightUpLeg  -4.93334 -14.9421 -7.82878
RightLeg  15.7041 -3.49445 2.58468
RightFoot  -4.17999 -0.395326 5.8536
RightToes  -5.8209e-011 0 -3.6325e-017
Spine  9.20438 0.681953 13.4817
Spine1  4.49439 2.95008 -4.90839
HEad  -4.1155 18.5379 -9.94716
LeftShoulder1  7.14619 -10.4686 -44.5355
LeftArm  -13.6552 23.2041 -29.8714
LeftForeArm  28.6599 -32.758 -5.60174
LeftHand  -0.244104 0.0205437 5.32207
RightShoulder  5.40944 8.84718 37.7629
RightArm  1.31702 -4.85187 30.9564
RightForeArm  -1.78085 24.7626 5.28114
RightHand  -0.822732 0.116312 -17.3473
LeftUpLeg  -17.0341 10.5677 1.60622
LeftLeg  48.9314 4.98659 6.5241
LeftFoot  -4.56284 0.199974 -2.89608
LeftToes  1.76439e-010 -1.07097e-011 2.32476e-011
89
root  -34.1951 40.5762 -7.4038 0.167816 -41.6432 -3.3968
RightUpLeg  -2.32962 -13.5472 -8.37275
RightLeg  13.6638 -7.86122 2.83217
RightFoot  -4.66311 -0.360563 5.62781
RightToes  -5.8209e-011 0 -3.6325e-017
Spine  8.94815 0.948479 13.5519
Spine1  4.28708 3.27391 -5.72661
HEad  -4.76318 18.6035 -10.1465
LeftShoulder1  7.1546 -10.5042 -44.4717
LeftArm  -12.8249 23.616 -30.2433
LeftForeArm  27.6344 -30.1197 -5.028
LeftHand  -0.244104 0.0205437 5.32207
RightShoulder  5.38105 8.83275 37.5901
RightArm  -0.470598 -4.53454 31.0158
RightForeArm  -0.111107 30.8548 6.76456
RightHand  -0.723993 -0.46431 -17.03
LeftUpLeg  -18.9948 14.6178 -0.697496
LeftLeg  42.6589 5.38651 5.67612
LeftFoot  -5.51292 0.153237 -2.35497
LeftToes  1.76439e-010 -1.07097e-011 2.32476e-011
90
root  -34.9123 40.6908 -7.08505 0.346985 -38.7547 -3.04703
RightUpLeg  -0.0348119 -12.6022 -8.49947
RightLeg  11.8514 -11.479 3.17988
RightFoot  -5.52489 -0.330946 5.78021
RightToes  -5.8209e-011 0 -3.6325e-017
Spine  8.68346 1.25279 13.6162
Spine1  4.18087 3.61376 -6.44681
HEad  -5.42983 18.3494 -10.1658
LeftShoulder1  7.10733 -10.4141 -44.4631
LeftArm  -12.1189 23.7449 -30.6198
LeftForeArm  26.0037 -26.7615 -4.34795
LeftHand  -0.244104 0.0205437 5.32207
RightShoulder  5.41098 8.87346 37.6849
RightArm  -1.10508 -4.12726 30.6893
RightForeArm  1.31183 36.4901 8.22412
RightHand  -0.633597 -0.954298 -16.5191
LeftUpLeg  -20.407 19.6525 -3.48162
LeftLeg  34.754 5.08687 4.16187
LeftFoot  -6.32502 0.13582 -2.24825
LeftToes  1.76439e-010 -1.07097e-011 2.32476e-011
91
root  -35.5959 40.7118 -6.70254 0.697784 -35.9547 -3.07626
RightUpLeg  2.12732 -11.8525 -8.14913
RightLeg  10.3685 -14.7237 3.45127
RightFoot  -6.38957 -0.321382 6.41545
RightToes  -5.8209e-011 0 -3.6325e-017
Spine  8.4636 1.50194 13.6944
Spine1  4.09732 3.8537 -6.82624
HEad  -5.91885 18.2848 -10.3584
LeftShoulder1  7.04878 -10.2889 -44.4971
LeftArm  -11.6864 23.9818 -30.9908
LeftForeArm  24.0897 -23.045 -3.74447
LeftHand  -0.244104 0.0205437 5.32207
RightShoulder  5.44072 8.89248 37.8517
RightArm  -1.17683 -3.43402 30.2395
RightForeArm  2.7721 40.7179 9.46199
RightHand  -0.552929 -1.39468 -15.9588
LeftUpLeg  -21.5154 26.876 -7.11552
LeftLeg  25.7193 2.30688 1.94276
LeftFoot  -6.17849 0.185381 -3.26401
LeftToes  1.76439e-010 -1.07097e-011 2.32476e-011
92
root  -36.2612 40.6722 -6.23142 1.07808 -33.115 -3.52924
RightUpLeg  4.33843 -11.1016 -7.24256
RightLeg  9.18127 -18.238 3.50028
RightFoot  -7.04122 -0.294669 6.54571
RightToes  -5.8209e-011 0 -3.6325e-017
Spine  8.16273 1.62218 13.946
Spine1  4.17018 3.97386 -6.95647
HEad  -6.33799 18.5807 -10.4548
LeftShoulder1  7.00587 -10.2418 -44.3721
LeftArm  -12.2943 24.6424 -31.3941
LeftForeArm  23.118 -19.3944 -3.61187
LeftHand  -0.244104 0.0205437 5.32207
RightShoulder  5.45383 8.88442 37.981
RightArm  -0.979783 -2.68506 29.9077
RightForeArm  3.91896 43.2998 10.2943
RightHand  -0.458041 -1.94483 -15.2509
LeftUpLeg  -21.3292 32.0727 -9.57922
LeftLeg  16.1214 2.53033 -0.776282
LeftFoot  -5.04189 0.273165 -4.41467
LeftToes  1.76439e-010 -1.07097e-011 2.32476e-011
93
root  -36.9096 40.5869 -5.66903 1.38159 -30.2655 -4.18857
RightUpLeg  6.68079 -10.609 -6.10623
RightLeg  8.13349 -21.5062 3.60346
RightFoot  -7.90301 -0.247474 6.46166
RightToes  -5.8209e-011 0 -3.6325e-017
Spine  7.63093 1.69006 14.0938
Spine1  4.45748 3.99499 -6.87854
HEad  -6.70597 19.194 -10.3272
LeftShoulder1  6.97247 -10.2522 -44.1151
LeftArm  -13.5599 25.6139 -31.7102
LeftForeArm  23.1675 -16.1103 -3.7521
LeftHand  -0.244104 0.0205437 5.32207
RightShoulder  5.49777 8.92355 38.1877
RightArm  -0.620027 -2.00782 29.7014
RightForeArm  4.41844 44.2244 10.6078
RightHand  -0.377184 -2.43496 -14.5575
LeftUpLeg  -16.8356 19.5301 -4.18288
LeftLeg  4.88899 23.3031 -7.36412
LeftFoot  -3.81735 0.355975 -5.06598
LeftToes  1.76439e-010 -1.07097e-011 2.32476e-011
94
root  -37.5506 40.39 -5.01526 1.53268 -27.4941 -4.9381
RightUpLeg  8.98326 -10.4223 -5.08993
RightLeg  7.8568 -23.8865 3.85121
RightFoot  -9.48904 -0.18646 7.70295
RightToes  -5.8209e-011 0 -3.6325e-017
Spine  7.01143 1.82289 13.8765
Spine1  4.74358 3.92129 -6.39967
HEad  -6.97477 20.0526 -10.0192
LeftShoulder1  6.95682 -10.2655 -43.9667
LeftArm  -14.4182 26.5479 -31.7022
LeftForeArm  23.4218 -13.1518 -3.83777
LeftHand  -0.244104 0.0205437 5.32207
RightShoulder  5.59986 9.05232 38.5326
RightArm  -0.157949 -1.43506 29.6159
RightForeArm  4.25262 43.421 10.3228
RightHand  -0.364339 -2.50002 -14.3485
LeftUpLeg  -13.9935 5.05668 -0.0595778
LeftLeg  -7.56711 46.1416 -16.0066
LeftFoot  -3.52898 0.428276 -5.97855
LeftToes  1.76439e-010 -1.07097e-011 2.32476e-011
95
root  -38.1892 40.1058 -4.26237 1.4379 -24.9513 -5.79753
RightUpLeg  11.1973 -10.5168 -4.18072
RightLeg  8.66413 -25.586 3.8805
RightFoot  -11.0876 -0.0986192 9.65262
RightToes  -5.8209e-011 0 -3.6325e-017
Spine  6.59447 2.06186 13.4525
Spine1  4.89989 3.90844 -5.69455
HEad  -7.16944 21.05 -9.40193
LeftShoulder1  6.94556 -10.2687 -43.8812
LeftArm  -14.6353 27.409 -31.3557
LeftForeArm  23.4884 -10.5948 -3.84527
LeftHand  -0.244104 0.0205437 5.32207
RightShoulder  5.73888 9.2525 38.9063
RightArm  0.400037 -1.2385 29.7347
RightForeArm  3.81256 41.0376 9.51189
RightHand  -0.422546 -2.05097 -14.4969
LeftUpLeg  -13.8071 4.74703 -0.799295
LeftLeg  -11.7887 52.6962 -18.1332
LeftFoot  -3.95581 0.429447 -6.29166
LeftToes  1.76439e-010 -1.07097e-011 2.32476e-011
96
root  -38.8215 39.8584 -3.39444 1.01993 -22.8767 -6.47478
RightUpLeg  13.4352 -11.2956 -3.70058
RightLeg  10.0787 -26.3729 3.4564
RightFoot  -11.8454 -0.0345375 10.6175
RightToes  -5.8209e-011 0 -3.6325e-017
Spine  6.38848 2.38975 12.8191
Spine1  5.15363 4.20416 -5.32741
HEad  -7.44682 22.2726 -8.4289
LeftShoulder1  6.86134 -10.1895 -43.5835
LeftArm  -14.4177 28.493 -30.849
LeftForeArm  23.1446 -8.98801 -3.79153
LeftHand  -0.244104 0.0205437 5.32207
RightShoulder  5.91306 9.50146 39.3618
RightArm  1.35754 -1.68962 29.9761
RightForeArm  3.45974 37.5527 8.41675
RightHand  -0.49585 -1.37049 -14.2326
LeftUpLeg  -13.1206 4.80698 -0.999429
LeftLeg  -12.4501 54.865 -18.7672
LeftFoot  -3.9486 0.112879 -1.38537
LeftToes  1.76439e-010 -1.07097e-011 2.32476e-011
97
root  -39.4343 39.6619 -2.40209 0.341751 -21.2456 -6.52481
RightUpLeg  15.8364 -15.7331 -5.30754
RightLeg  12.288 -22.1916 2.43664
RightFoot  -12.2939 0.0251949 12.3696
RightToes  -5.8209e-011 0 -3.6325e-017
Spine  6.01267 2.8158 11.4559
Spine1  5.62452 4.69821 -5.3122
HEad  -7.88761 23.9465 -7.38962
LeftShoulder1  6.66997 -9.92428 -43.181
LeftArm  -14.174 29.8168 -30.0864
LeftForeArm  22.629 -8.63414 -3.74025
LeftHand  -0.244104 0.0205437 5.32207
RightShoulder  6.13245 9.73946 40.1588
RightArm  3.17164 -2.66321 30.1483
RightForeArm  3.12653 33.3655 7.24056
RightHand  -0.544848 -0.730252 -13.5471
LeftUpLeg  -12.8999 5.52576 -1.52691
LeftLeg  -8.1973 53.6419 -15.9759
LeftFoot  -4.44802 -0.460684 8.19234
LeftToes  1.76439e-010 -1.07097e-011 2.32476e-011
